G04 EAGLE Gerber RS-274X export*
G75*
%MOMM*%
%FSLAX34Y34*%
%LPD*%
%INTop Copper*%
%IPPOS*%
%AMOC8*
5,1,8,0,0,1.08239X$1,22.5*%
G01*
%ADD10C,1.422400*%
%ADD11C,1.879600*%
%ADD12C,1.509600*%
%ADD13P,1.539592X8X202.500000*%
%ADD14P,1.539592X8X22.500000*%
%ADD15C,1.609600*%
%ADD16P,1.539592X8X292.500000*%
%ADD17P,1.539592X8X112.500000*%
%ADD18C,1.422400*%
%ADD19P,2.034460X8X112.500000*%
%ADD20R,1.350000X0.400000*%
%ADD21C,1.809600*%
%ADD22C,0.406400*%
%ADD23C,1.058000*%


D10*
X488188Y635000D02*
X502412Y635000D01*
X502412Y609600D02*
X488188Y609600D01*
X488188Y584200D02*
X502412Y584200D01*
X502412Y558800D02*
X488188Y558800D01*
X488188Y533400D02*
X502412Y533400D01*
X502412Y508000D02*
X488188Y508000D01*
X488188Y482600D02*
X502412Y482600D01*
X502412Y457200D02*
X488188Y457200D01*
X488188Y431800D02*
X502412Y431800D01*
X502412Y406400D02*
X488188Y406400D01*
X488188Y381000D02*
X502412Y381000D01*
X502412Y355600D02*
X488188Y355600D01*
X488188Y330200D02*
X502412Y330200D01*
X502412Y304800D02*
X488188Y304800D01*
X564388Y304800D02*
X578612Y304800D01*
X578612Y330200D02*
X564388Y330200D01*
X564388Y355600D02*
X578612Y355600D01*
X578612Y381000D02*
X564388Y381000D01*
X564388Y406400D02*
X578612Y406400D01*
X578612Y431800D02*
X564388Y431800D01*
X564388Y457200D02*
X578612Y457200D01*
X578612Y482600D02*
X564388Y482600D01*
X564388Y508000D02*
X578612Y508000D01*
X578612Y533400D02*
X564388Y533400D01*
X564388Y558800D02*
X578612Y558800D01*
X578612Y584200D02*
X564388Y584200D01*
X564388Y609600D02*
X578612Y609600D01*
X578612Y635000D02*
X564388Y635000D01*
D11*
X25400Y466090D03*
X25400Y491490D03*
X101600Y596900D03*
X127000Y596900D03*
X152400Y596900D03*
X177800Y596900D03*
D12*
X25400Y611740D03*
X25400Y586740D03*
X25400Y561740D03*
D13*
X279400Y749300D03*
X177800Y749300D03*
D14*
X114300Y749300D03*
X139700Y749300D03*
D11*
X355600Y635000D03*
X355600Y609600D03*
X355600Y584200D03*
X355600Y558800D03*
X355600Y533400D03*
D15*
X292100Y584600D03*
X292100Y634600D03*
D16*
X228600Y673100D03*
X228600Y571500D03*
D17*
X444500Y330200D03*
X444500Y355600D03*
D16*
X622300Y635000D03*
X622300Y609600D03*
D18*
X622300Y457200D03*
D16*
X622300Y406400D03*
D11*
X63500Y190500D03*
X63500Y215900D03*
X63500Y241300D03*
X63500Y266700D03*
X63500Y292100D03*
X63500Y317500D03*
X152400Y368300D03*
X152400Y342900D03*
X152400Y317500D03*
X152400Y292100D03*
X152400Y266700D03*
X152400Y241300D03*
X152400Y215900D03*
D10*
X780288Y635000D02*
X794512Y635000D01*
X794512Y609600D02*
X780288Y609600D01*
X780288Y584200D02*
X794512Y584200D01*
X794512Y558800D02*
X780288Y558800D01*
X780288Y533400D02*
X794512Y533400D01*
X794512Y508000D02*
X780288Y508000D01*
X780288Y482600D02*
X794512Y482600D01*
X794512Y457200D02*
X780288Y457200D01*
X780288Y431800D02*
X794512Y431800D01*
X794512Y406400D02*
X780288Y406400D01*
X780288Y381000D02*
X794512Y381000D01*
X794512Y355600D02*
X780288Y355600D01*
X780288Y330200D02*
X794512Y330200D01*
X794512Y304800D02*
X780288Y304800D01*
X856488Y304800D02*
X870712Y304800D01*
X870712Y330200D02*
X856488Y330200D01*
X856488Y355600D02*
X870712Y355600D01*
X870712Y381000D02*
X856488Y381000D01*
X856488Y406400D02*
X870712Y406400D01*
X870712Y431800D02*
X856488Y431800D01*
X856488Y457200D02*
X870712Y457200D01*
X870712Y482600D02*
X856488Y482600D01*
X856488Y508000D02*
X870712Y508000D01*
X870712Y533400D02*
X856488Y533400D01*
X856488Y558800D02*
X870712Y558800D01*
X870712Y584200D02*
X856488Y584200D01*
X856488Y609600D02*
X870712Y609600D01*
X870712Y635000D02*
X856488Y635000D01*
D16*
X749300Y431800D03*
X749300Y406400D03*
X685800Y355600D03*
X685800Y254000D03*
X723900Y355600D03*
X723900Y254000D03*
D14*
X762000Y241300D03*
X863600Y241300D03*
D16*
X863600Y279400D03*
X863600Y254000D03*
D15*
X660800Y787400D03*
X710800Y787400D03*
D13*
X711200Y838200D03*
X609600Y838200D03*
D11*
X482600Y863600D03*
X482600Y838200D03*
X482600Y812800D03*
X482600Y787400D03*
X482600Y762000D03*
X482600Y736600D03*
X482600Y711200D03*
X558800Y863600D03*
X558800Y838200D03*
X558800Y812800D03*
X558800Y787400D03*
X558800Y762000D03*
X558800Y736600D03*
X558800Y711200D03*
X431800Y889000D03*
X431800Y914400D03*
X431800Y736600D03*
X431800Y762000D03*
D19*
X292100Y88900D03*
X266700Y88900D03*
X292100Y114300D03*
X266700Y114300D03*
X292100Y139700D03*
X266700Y139700D03*
X292100Y165100D03*
X266700Y165100D03*
X292100Y190500D03*
X266700Y190500D03*
X292100Y215900D03*
X266700Y215900D03*
X292100Y241300D03*
X266700Y241300D03*
X292100Y266700D03*
X266700Y266700D03*
X292100Y292100D03*
X266700Y292100D03*
X292100Y317500D03*
X266700Y317500D03*
X292100Y342900D03*
X266700Y342900D03*
D14*
X165100Y50800D03*
X266700Y50800D03*
D13*
X393700Y50800D03*
X292100Y50800D03*
D11*
X241300Y139700D03*
X241300Y266700D03*
X317500Y292100D03*
X749300Y609600D03*
X749300Y584200D03*
X749300Y558800D03*
X749300Y533400D03*
X749300Y508000D03*
X749300Y482600D03*
X749300Y457200D03*
X863600Y698500D03*
X863600Y723900D03*
X863600Y749300D03*
X660400Y25400D03*
X660400Y50800D03*
X660400Y76200D03*
X660400Y101600D03*
X660400Y127000D03*
X660400Y152400D03*
X660400Y177800D03*
X660400Y203200D03*
X558800Y25400D03*
X558800Y50800D03*
X558800Y76200D03*
X558800Y101600D03*
X558800Y127000D03*
X558800Y152400D03*
X558800Y177800D03*
X558800Y203200D03*
X584200Y25400D03*
X584200Y50800D03*
X584200Y76200D03*
X584200Y101600D03*
X584200Y127000D03*
X584200Y152400D03*
X584200Y177800D03*
X584200Y203200D03*
X609600Y25400D03*
X609600Y50800D03*
X609600Y76200D03*
X609600Y101600D03*
X609600Y127000D03*
X609600Y152400D03*
X609600Y177800D03*
X609600Y203200D03*
X635000Y25400D03*
X635000Y50800D03*
X635000Y76200D03*
X635000Y101600D03*
X635000Y127000D03*
X635000Y152400D03*
X635000Y177800D03*
X635000Y203200D03*
X698500Y25400D03*
X698500Y50800D03*
X698500Y76200D03*
X698500Y101600D03*
X698500Y127000D03*
X698500Y152400D03*
X698500Y177800D03*
X698500Y203200D03*
X723900Y25400D03*
X723900Y50800D03*
X723900Y76200D03*
X723900Y101600D03*
X723900Y127000D03*
X723900Y152400D03*
X723900Y177800D03*
X723900Y203200D03*
X749300Y25400D03*
X749300Y50800D03*
X749300Y76200D03*
X749300Y101600D03*
X749300Y127000D03*
X749300Y152400D03*
X749300Y177800D03*
X749300Y203200D03*
X774700Y25400D03*
X774700Y50800D03*
X774700Y76200D03*
X774700Y101600D03*
X774700Y127000D03*
X774700Y152400D03*
X774700Y177800D03*
X774700Y203200D03*
X800100Y25400D03*
X800100Y50800D03*
X800100Y76200D03*
X800100Y101600D03*
X800100Y127000D03*
X800100Y152400D03*
X800100Y177800D03*
X800100Y203200D03*
X863600Y25400D03*
X863600Y50800D03*
X863600Y76200D03*
X863600Y101600D03*
X863600Y127000D03*
X863600Y152400D03*
X863600Y177800D03*
X863600Y203200D03*
X520700Y25400D03*
X520700Y50800D03*
X520700Y76200D03*
X520700Y101600D03*
X520700Y127000D03*
X520700Y152400D03*
X520700Y177800D03*
X520700Y203200D03*
X838200Y25400D03*
X838200Y50800D03*
X838200Y76200D03*
X838200Y101600D03*
X838200Y127000D03*
X838200Y152400D03*
X838200Y177800D03*
X838200Y203200D03*
X495300Y25400D03*
X495300Y50800D03*
X495300Y76200D03*
X495300Y101600D03*
X495300Y127000D03*
X495300Y152400D03*
X495300Y177800D03*
X495300Y203200D03*
D20*
X47320Y730550D03*
X47320Y724050D03*
X47320Y717550D03*
X47320Y711050D03*
X47320Y704550D03*
D12*
X47320Y742550D03*
X47320Y692550D03*
D21*
X20320Y752550D03*
X20320Y682550D03*
D22*
X47320Y704550D02*
X57450Y704550D01*
X63500Y698500D01*
D23*
X63500Y698500D03*
D22*
X56850Y730550D02*
X47320Y730550D01*
X56850Y730550D02*
X76200Y711200D01*
X76200Y660400D01*
X27540Y611740D01*
X25400Y611740D01*
X25400Y561740D02*
X25400Y491490D01*
X152400Y591280D02*
X152400Y596900D01*
X152400Y591280D02*
X132366Y571246D01*
X152400Y596900D02*
X152400Y622300D01*
X241300Y711200D02*
X304800Y711200D01*
X431800Y838200D01*
X482600Y838200D01*
X241300Y711200D02*
X152400Y622300D01*
X12700Y419100D02*
X12700Y38100D01*
X38100Y12700D01*
X482600Y12700D01*
X495300Y25400D01*
X132366Y571246D02*
X63754Y571246D01*
X48260Y586740D01*
X25400Y586740D01*
X63500Y570992D02*
X63754Y571246D01*
X63500Y570992D02*
X63500Y469900D01*
X12700Y419100D01*
X101600Y596900D02*
X101600Y736600D01*
X114300Y749300D01*
X317500Y571500D02*
X355600Y609600D01*
X317500Y571500D02*
X228600Y571500D01*
X355600Y609600D02*
X368300Y622300D01*
X558800Y622300D02*
X571500Y635000D01*
X558800Y622300D02*
X368300Y622300D01*
X571500Y635000D02*
X571500Y698500D01*
X558800Y711200D01*
X571500Y635000D02*
X622300Y635000D01*
X558800Y838200D02*
X533400Y838200D01*
X520700Y825500D01*
X520700Y723900D01*
X533400Y711200D01*
X558800Y711200D01*
X558800Y838200D02*
X609600Y838200D01*
X622300Y635000D02*
X711200Y546100D01*
X711200Y457200D02*
X736600Y431800D01*
X749300Y431800D01*
X711200Y457200D02*
X711200Y546100D01*
X749300Y431800D02*
X787400Y431800D01*
X723900Y254000D02*
X685800Y254000D01*
X863600Y177800D02*
X863600Y152400D01*
X863600Y177800D02*
X863600Y203200D01*
X863600Y152400D02*
X863600Y127000D01*
X863600Y101600D01*
X863600Y76200D01*
X863600Y50800D01*
X863600Y25400D01*
X736600Y254000D02*
X749300Y266700D01*
X736600Y254000D02*
X723900Y254000D01*
X749300Y266700D02*
X800100Y266700D01*
X838200Y304800D01*
X495300Y330200D02*
X444500Y330200D01*
X292100Y50800D02*
X266700Y50800D01*
X292100Y50800D02*
X292100Y88900D01*
X850900Y381000D02*
X863600Y381000D01*
X850900Y381000D02*
X838200Y368300D01*
X838200Y304800D01*
X152400Y342900D02*
X139700Y342900D01*
X127000Y355600D01*
X127000Y520700D01*
D23*
X127000Y520700D03*
D22*
X863600Y203200D02*
X876300Y203200D01*
X889000Y215900D01*
X889000Y266700D01*
X876300Y279400D01*
X863600Y279400D01*
X876300Y279400D02*
X889000Y292100D01*
X889000Y368300D01*
X876300Y381000D01*
X863600Y381000D01*
X863600Y457200D02*
X876300Y457200D01*
X889000Y444500D01*
X889000Y393700D01*
X876300Y381000D01*
X800100Y431800D02*
X787400Y431800D01*
X800100Y431800D02*
X850900Y381000D01*
X177800Y749300D02*
X139700Y749300D01*
X355600Y635000D02*
X495300Y635000D01*
X292500Y635000D02*
X292100Y634600D01*
X292500Y635000D02*
X355600Y635000D01*
X292100Y634600D02*
X267100Y634600D01*
X228600Y673100D01*
X546100Y533400D02*
X571500Y533400D01*
X546100Y533400D02*
X533400Y520700D01*
X457200Y520700D01*
X431800Y495300D01*
X431800Y482600D02*
X419100Y469900D01*
X431800Y482600D02*
X431800Y495300D01*
X63500Y292100D02*
X50800Y292100D01*
X38100Y304800D01*
X38100Y368300D01*
D23*
X419100Y469900D03*
X38100Y368300D03*
D22*
X546100Y584200D02*
X571500Y584200D01*
X546100Y584200D02*
X533400Y571500D01*
X444500Y571500D01*
X406400Y533400D01*
X406400Y508000D01*
X393700Y495300D01*
X63500Y266700D02*
X50800Y266700D01*
X25400Y292100D01*
X25400Y406400D01*
D23*
X393700Y495300D03*
X25400Y406400D03*
D22*
X546100Y558800D02*
X571500Y558800D01*
X546100Y558800D02*
X533400Y546100D01*
X444500Y546100D01*
X419100Y520700D01*
X419100Y495300D01*
X406400Y482600D01*
X152400Y317500D02*
X139700Y317500D01*
X114300Y342900D01*
D23*
X406400Y482600D03*
D22*
X114300Y469900D02*
X114300Y342900D01*
D23*
X114300Y469900D03*
D22*
X152400Y241300D02*
X177800Y241300D01*
X190500Y254000D01*
X546100Y508000D02*
X571500Y508000D01*
X546100Y508000D02*
X533400Y495300D01*
X482600Y495300D01*
X462788Y475488D01*
X462788Y467585D01*
X439703Y444500D01*
D23*
X439703Y444500D03*
X190500Y431800D03*
D22*
X190500Y254000D01*
X762000Y355600D02*
X787400Y355600D01*
D23*
X762000Y355600D03*
D22*
X685800Y355600D02*
X571500Y355600D01*
X749300Y330200D02*
X787400Y330200D01*
X749300Y330200D02*
X723900Y355600D01*
X698500Y381000D01*
X571500Y381000D01*
X596900Y431800D02*
X622300Y457200D01*
X596900Y431800D02*
X571500Y431800D01*
X863600Y254000D02*
X863600Y241300D01*
X711200Y787800D02*
X711200Y838200D01*
X711200Y787800D02*
X710800Y787400D01*
X863600Y558800D02*
X876300Y558800D01*
X889000Y571500D01*
X889000Y647700D01*
X812800Y723900D01*
X685800Y723900D01*
X596900Y812800D02*
X558800Y812800D01*
X596900Y812800D02*
X685800Y723900D01*
X850900Y533400D02*
X863600Y533400D01*
X850900Y533400D02*
X838200Y546100D01*
X838200Y673100D01*
X800100Y711200D01*
X673100Y711200D01*
X596900Y787400D02*
X558800Y787400D01*
X596900Y787400D02*
X673100Y711200D01*
X787400Y698500D02*
X825500Y660400D01*
X787400Y698500D02*
X660400Y698500D01*
X850900Y508000D02*
X863600Y508000D01*
X850900Y508000D02*
X825500Y533400D01*
X825500Y660400D01*
X596900Y762000D02*
X558800Y762000D01*
X596900Y762000D02*
X660400Y698500D01*
X596900Y736600D02*
X558800Y736600D01*
X850900Y482600D02*
X863600Y482600D01*
X850900Y482600D02*
X812800Y520700D01*
X812800Y647700D01*
X774700Y685800D01*
X647700Y685800D01*
X596900Y736600D01*
X165100Y101600D02*
X165100Y50800D01*
X165100Y101600D02*
X177800Y114300D01*
X266700Y114300D01*
X543061Y286738D02*
X584200Y286738D01*
X419100Y50800D02*
X393700Y25400D01*
X419100Y50800D02*
X419100Y162778D01*
X543061Y286738D01*
X393700Y25400D02*
X177800Y25400D01*
X571500Y330200D02*
X584200Y330200D01*
X596900Y317500D01*
X596900Y299438D02*
X584200Y286738D01*
X596900Y299438D02*
X596900Y317500D01*
X165100Y50800D02*
X165100Y38100D01*
X177800Y25400D01*
X292100Y114300D02*
X406400Y114300D01*
X546100Y304800D02*
X571500Y304800D01*
X546100Y304800D02*
X406400Y165100D01*
X406400Y63500D02*
X393700Y50800D01*
X406400Y63500D02*
X406400Y114300D01*
X406400Y165100D01*
X431800Y609600D02*
X495300Y609600D01*
X431800Y609600D02*
X381000Y558800D01*
X381000Y520700D01*
X215900Y508000D02*
X203200Y495300D01*
X368300Y508000D02*
X381000Y520700D01*
X203200Y495300D02*
X203200Y254000D01*
D23*
X368300Y508000D03*
X215900Y508000D03*
D22*
X203200Y254000D02*
X215900Y241300D01*
D23*
X215900Y241300D03*
D22*
X215900Y255270D02*
X255270Y215900D01*
X266700Y215900D01*
D23*
X215900Y381000D03*
D22*
X215900Y255270D01*
X469900Y508000D02*
X495300Y508000D01*
X469900Y508000D02*
X444500Y482600D01*
X444500Y469900D02*
X431800Y457200D01*
X444500Y469900D02*
X444500Y482600D01*
D23*
X431800Y457200D03*
D22*
X266700Y165100D02*
X152400Y165100D01*
X101600Y215900D02*
X101600Y406400D01*
D23*
X101600Y406400D03*
X152400Y165100D03*
X101600Y215900D03*
D22*
X469900Y381000D02*
X495300Y406400D01*
X330200Y215900D02*
X292100Y215900D01*
X330200Y215900D02*
X393700Y279400D01*
X393700Y368300D01*
X406400Y381000D01*
X469900Y381000D01*
X495300Y584200D02*
X431800Y584200D01*
X393700Y546100D01*
X393700Y514350D01*
X374650Y495300D01*
X330200Y241300D02*
X292100Y241300D01*
X330200Y241300D02*
X374650Y285750D01*
X374650Y495300D01*
X495300Y482600D02*
X508000Y482600D01*
X533400Y457200D01*
X533400Y304800D02*
X393700Y165100D01*
X533400Y304800D02*
X533400Y457200D01*
X330200Y165100D02*
X292100Y165100D01*
D23*
X330200Y165100D03*
X393700Y165100D03*
D22*
X88900Y508000D02*
X139700Y558800D01*
X88900Y508000D02*
X88900Y203200D01*
X101600Y190500D01*
X266700Y190500D01*
X355600Y558800D02*
X139700Y558800D01*
X292100Y190500D02*
X330200Y190500D01*
X355600Y292100D02*
X355600Y533400D01*
D23*
X355600Y292100D03*
X330200Y190500D03*
D22*
X495300Y381000D02*
X508000Y381000D01*
X520700Y368300D01*
X520700Y306070D01*
X354330Y139700D01*
X292100Y139700D01*
X266700Y292100D02*
X241300Y292100D01*
X228600Y304800D01*
D23*
X228600Y355600D03*
D22*
X228600Y304800D01*
X406400Y317500D02*
X419100Y304800D01*
X495300Y304800D01*
D23*
X406400Y317500D03*
D22*
X317500Y419100D02*
X292100Y393700D01*
X292100Y342900D01*
D23*
X317500Y419100D03*
D22*
X266700Y381000D02*
X266700Y342900D01*
D23*
X266700Y381000D03*
D22*
X292100Y292100D02*
X317500Y292100D01*
X266700Y266700D02*
X241300Y266700D01*
X241300Y139700D02*
X266700Y139700D01*
X749300Y584200D02*
X787400Y584200D01*
X787400Y533400D02*
X749300Y533400D01*
X749300Y482600D02*
X787400Y482600D01*
X787400Y457200D02*
X749300Y457200D01*
X749300Y508000D02*
X787400Y508000D01*
X787400Y558800D02*
X749300Y558800D01*
X749300Y609600D02*
X787400Y609600D01*
M02*
