G04 EAGLE Gerber RS-274X export*
G75*
%MOMM*%
%FSLAX34Y34*%
%LPD*%
%INSoldermask Bottom*%
%IPPOS*%
%AMOC8*
5,1,8,0,0,1.08239X$1,22.5*%
G01*
%ADD10C,3.378200*%
%ADD11C,1.625600*%
%ADD12C,2.082800*%
%ADD13C,1.712800*%
%ADD14P,1.759533X8X202.500000*%
%ADD15P,1.759533X8X22.500000*%
%ADD16C,1.812800*%
%ADD17P,1.759533X8X292.500000*%
%ADD18P,1.759533X8X112.500000*%
%ADD19C,1.625600*%
%ADD20P,2.254402X8X112.500000*%
%ADD21C,2.012800*%
%ADD22C,1.261200*%


D10*
X25400Y795020D03*
X25400Y972820D03*
X977900Y972820D03*
X977900Y795020D03*
D11*
X502412Y635000D02*
X488188Y635000D01*
X488188Y609600D02*
X502412Y609600D01*
X502412Y584200D02*
X488188Y584200D01*
X488188Y558800D02*
X502412Y558800D01*
X502412Y533400D02*
X488188Y533400D01*
X488188Y508000D02*
X502412Y508000D01*
X502412Y482600D02*
X488188Y482600D01*
X488188Y457200D02*
X502412Y457200D01*
X502412Y431800D02*
X488188Y431800D01*
X488188Y406400D02*
X502412Y406400D01*
X502412Y381000D02*
X488188Y381000D01*
X488188Y355600D02*
X502412Y355600D01*
X502412Y330200D02*
X488188Y330200D01*
X488188Y304800D02*
X502412Y304800D01*
X564388Y304800D02*
X578612Y304800D01*
X578612Y330200D02*
X564388Y330200D01*
X564388Y355600D02*
X578612Y355600D01*
X578612Y381000D02*
X564388Y381000D01*
X564388Y406400D02*
X578612Y406400D01*
X578612Y431800D02*
X564388Y431800D01*
X564388Y457200D02*
X578612Y457200D01*
X578612Y482600D02*
X564388Y482600D01*
X564388Y508000D02*
X578612Y508000D01*
X578612Y533400D02*
X564388Y533400D01*
X564388Y558800D02*
X578612Y558800D01*
X578612Y584200D02*
X564388Y584200D01*
X564388Y609600D02*
X578612Y609600D01*
X578612Y635000D02*
X564388Y635000D01*
D12*
X25400Y466090D03*
X25400Y491490D03*
X101600Y596900D03*
X127000Y596900D03*
X152400Y596900D03*
X177800Y596900D03*
D13*
X25400Y611740D03*
X25400Y586740D03*
X25400Y561740D03*
D14*
X279400Y749300D03*
X177800Y749300D03*
D15*
X114300Y749300D03*
X139700Y749300D03*
D12*
X355600Y635000D03*
X355600Y609600D03*
X355600Y584200D03*
X355600Y558800D03*
X355600Y533400D03*
D16*
X292100Y584600D03*
X292100Y634600D03*
D17*
X228600Y673100D03*
X228600Y571500D03*
D18*
X444500Y330200D03*
X444500Y355600D03*
D17*
X622300Y635000D03*
X622300Y609600D03*
D19*
X622300Y457200D03*
D17*
X622300Y406400D03*
D12*
X63500Y190500D03*
X63500Y215900D03*
X63500Y241300D03*
X63500Y266700D03*
X63500Y292100D03*
X63500Y317500D03*
X152400Y368300D03*
X152400Y342900D03*
X152400Y317500D03*
X152400Y292100D03*
X152400Y266700D03*
X152400Y241300D03*
X152400Y215900D03*
D11*
X780288Y635000D02*
X794512Y635000D01*
X794512Y609600D02*
X780288Y609600D01*
X780288Y584200D02*
X794512Y584200D01*
X794512Y558800D02*
X780288Y558800D01*
X780288Y533400D02*
X794512Y533400D01*
X794512Y508000D02*
X780288Y508000D01*
X780288Y482600D02*
X794512Y482600D01*
X794512Y457200D02*
X780288Y457200D01*
X780288Y431800D02*
X794512Y431800D01*
X794512Y406400D02*
X780288Y406400D01*
X780288Y381000D02*
X794512Y381000D01*
X794512Y355600D02*
X780288Y355600D01*
X780288Y330200D02*
X794512Y330200D01*
X794512Y304800D02*
X780288Y304800D01*
X856488Y304800D02*
X870712Y304800D01*
X870712Y330200D02*
X856488Y330200D01*
X856488Y355600D02*
X870712Y355600D01*
X870712Y381000D02*
X856488Y381000D01*
X856488Y406400D02*
X870712Y406400D01*
X870712Y431800D02*
X856488Y431800D01*
X856488Y457200D02*
X870712Y457200D01*
X870712Y482600D02*
X856488Y482600D01*
X856488Y508000D02*
X870712Y508000D01*
X870712Y533400D02*
X856488Y533400D01*
X856488Y558800D02*
X870712Y558800D01*
X870712Y584200D02*
X856488Y584200D01*
X856488Y609600D02*
X870712Y609600D01*
X870712Y635000D02*
X856488Y635000D01*
D17*
X749300Y431800D03*
X749300Y406400D03*
X685800Y355600D03*
X685800Y254000D03*
X723900Y355600D03*
X723900Y254000D03*
D15*
X762000Y241300D03*
X863600Y241300D03*
D17*
X863600Y279400D03*
X863600Y254000D03*
D16*
X660800Y787400D03*
X710800Y787400D03*
D14*
X711200Y838200D03*
X609600Y838200D03*
D12*
X482600Y863600D03*
X482600Y838200D03*
X482600Y812800D03*
X482600Y787400D03*
X482600Y762000D03*
X482600Y736600D03*
X482600Y711200D03*
X558800Y863600D03*
X558800Y838200D03*
X558800Y812800D03*
X558800Y787400D03*
X558800Y762000D03*
X558800Y736600D03*
X558800Y711200D03*
X431800Y889000D03*
X431800Y914400D03*
X431800Y736600D03*
X431800Y762000D03*
D20*
X292100Y88900D03*
X266700Y88900D03*
X292100Y114300D03*
X266700Y114300D03*
X292100Y139700D03*
X266700Y139700D03*
X292100Y165100D03*
X266700Y165100D03*
X292100Y190500D03*
X266700Y190500D03*
X292100Y215900D03*
X266700Y215900D03*
X292100Y241300D03*
X266700Y241300D03*
X292100Y266700D03*
X266700Y266700D03*
X292100Y292100D03*
X266700Y292100D03*
X292100Y317500D03*
X266700Y317500D03*
X292100Y342900D03*
X266700Y342900D03*
D15*
X165100Y50800D03*
X266700Y50800D03*
D14*
X393700Y50800D03*
X292100Y50800D03*
D12*
X241300Y139700D03*
X241300Y266700D03*
X317500Y292100D03*
X749300Y609600D03*
X749300Y584200D03*
X749300Y558800D03*
X749300Y533400D03*
X749300Y508000D03*
X749300Y482600D03*
X749300Y457200D03*
X863600Y698500D03*
X863600Y723900D03*
X863600Y749300D03*
X660400Y25400D03*
X660400Y50800D03*
X660400Y76200D03*
X660400Y101600D03*
X660400Y127000D03*
X660400Y152400D03*
X660400Y177800D03*
X660400Y203200D03*
X558800Y25400D03*
X558800Y50800D03*
X558800Y76200D03*
X558800Y101600D03*
X558800Y127000D03*
X558800Y152400D03*
X558800Y177800D03*
X558800Y203200D03*
X584200Y25400D03*
X584200Y50800D03*
X584200Y76200D03*
X584200Y101600D03*
X584200Y127000D03*
X584200Y152400D03*
X584200Y177800D03*
X584200Y203200D03*
X609600Y25400D03*
X609600Y50800D03*
X609600Y76200D03*
X609600Y101600D03*
X609600Y127000D03*
X609600Y152400D03*
X609600Y177800D03*
X609600Y203200D03*
X635000Y25400D03*
X635000Y50800D03*
X635000Y76200D03*
X635000Y101600D03*
X635000Y127000D03*
X635000Y152400D03*
X635000Y177800D03*
X635000Y203200D03*
X698500Y25400D03*
X698500Y50800D03*
X698500Y76200D03*
X698500Y101600D03*
X698500Y127000D03*
X698500Y152400D03*
X698500Y177800D03*
X698500Y203200D03*
X723900Y25400D03*
X723900Y50800D03*
X723900Y76200D03*
X723900Y101600D03*
X723900Y127000D03*
X723900Y152400D03*
X723900Y177800D03*
X723900Y203200D03*
X749300Y25400D03*
X749300Y50800D03*
X749300Y76200D03*
X749300Y101600D03*
X749300Y127000D03*
X749300Y152400D03*
X749300Y177800D03*
X749300Y203200D03*
X774700Y25400D03*
X774700Y50800D03*
X774700Y76200D03*
X774700Y101600D03*
X774700Y127000D03*
X774700Y152400D03*
X774700Y177800D03*
X774700Y203200D03*
X800100Y25400D03*
X800100Y50800D03*
X800100Y76200D03*
X800100Y101600D03*
X800100Y127000D03*
X800100Y152400D03*
X800100Y177800D03*
X800100Y203200D03*
X863600Y25400D03*
X863600Y50800D03*
X863600Y76200D03*
X863600Y101600D03*
X863600Y127000D03*
X863600Y152400D03*
X863600Y177800D03*
X863600Y203200D03*
X520700Y25400D03*
X520700Y50800D03*
X520700Y76200D03*
X520700Y101600D03*
X520700Y127000D03*
X520700Y152400D03*
X520700Y177800D03*
X520700Y203200D03*
X838200Y25400D03*
X838200Y50800D03*
X838200Y76200D03*
X838200Y101600D03*
X838200Y127000D03*
X838200Y152400D03*
X838200Y177800D03*
X838200Y203200D03*
X495300Y25400D03*
X495300Y50800D03*
X495300Y76200D03*
X495300Y101600D03*
X495300Y127000D03*
X495300Y152400D03*
X495300Y177800D03*
X495300Y203200D03*
D13*
X47320Y742550D03*
X47320Y692550D03*
D21*
X20320Y752550D03*
X20320Y682550D03*
D22*
X63500Y698500D03*
X127000Y520700D03*
X419100Y469900D03*
X38100Y368300D03*
X393700Y495300D03*
X25400Y406400D03*
X406400Y482600D03*
X114300Y469900D03*
X439703Y444500D03*
X190500Y431800D03*
X762000Y355600D03*
X368300Y508000D03*
X215900Y508000D03*
X215900Y241300D03*
X215900Y381000D03*
X431800Y457200D03*
X101600Y406400D03*
X152400Y165100D03*
X101600Y215900D03*
X330200Y165100D03*
X393700Y165100D03*
X355600Y292100D03*
X330200Y190500D03*
X228600Y355600D03*
X406400Y317500D03*
X317500Y419100D03*
X266700Y381000D03*
M02*
