M48
;GenerationSoftware,Autodesk,EAGLE,9.6.2*%
;CreationDate,2021-05-10T01:19:13Z*%
FMAT,2
ICI,OFF
METRIC,TZ,000.000
T8C0.550
T7C0.813
T6C0.900
T5C1.000
T4C1.016
T3C1.200
T2C3.175
%
G90
M71
T2
X2540Y79502
X2540Y97282
X97790Y97282
X97790Y79502
T3
X2032Y68255
X2032Y75255
T4
X55880Y20320
X66040Y2540
X55880Y17780
X55880Y15240
X55880Y12700
X55880Y10160
X55880Y7620
X55880Y5080
X55880Y2540
X66040Y20320
X66040Y17780
X66040Y15240
X66040Y12700
X66040Y10160
X66040Y7620
X66040Y5080
X63500Y12700
X60960Y7620
X43180Y73660
X63500Y10160
X63500Y7620
X63500Y5080
X63500Y2540
X60960Y20320
X60960Y17780
X60960Y15240
X60960Y12700
X60960Y10160
X58420Y2540
X60960Y5080
X60960Y2540
X58420Y20320
X58420Y17780
X58420Y15240
X58420Y12700
X58420Y10160
X58420Y7620
X58420Y5080
X29210Y16510
X26670Y26670
X29210Y26670
X26670Y24130
X29210Y24130
X26670Y21590
X29210Y21590
X26670Y19050
X29210Y19050
X26670Y16510
X29210Y29210
X26670Y13970
X29210Y13970
X26670Y11430
X29210Y11430
X26670Y8890
X29210Y8890
X43180Y76200
X43180Y91440
X74930Y60960
X86360Y72390
X86360Y69850
X74930Y45720
X74930Y48260
X74930Y50800
X74930Y53340
X74930Y55880
X74930Y58420
X86360Y74930
X31750Y29210
X24130Y26670
X24130Y13970
X26670Y34290
X29210Y34290
X26670Y31750
X29210Y31750
X26670Y29210
X86360Y10160
X52070Y12700
X52070Y10160
X52070Y7620
X52070Y5080
X52070Y2540
X86360Y20320
X86360Y17780
X86360Y15240
X86360Y12700
X52070Y15240
X86360Y7620
X86360Y5080
X86360Y2540
X80010Y20320
X80010Y17780
X80010Y15240
X80010Y12700
X80010Y10160
X83820Y17780
X49530Y20320
X49530Y17780
X49530Y15240
X49530Y12700
X49530Y10160
X49530Y7620
X49530Y5080
X49530Y2540
X83820Y20320
X80010Y7620
X83820Y15240
X83820Y12700
X83820Y10160
X83820Y7620
X83820Y5080
X83820Y2540
X52070Y20320
X52070Y17780
X69850Y17780
X72390Y20320
X72390Y17780
X72390Y15240
X72390Y12700
X72390Y10160
X72390Y7620
X72390Y5080
X72390Y2540
X69850Y20320
X74930Y2540
X69850Y15240
X69850Y12700
X69850Y10160
X69850Y7620
X69850Y5080
X69850Y2540
X63500Y20320
X63500Y17780
X77470Y5080
X80010Y5080
X80010Y2540
X77470Y20320
X77470Y17780
X77470Y15240
X77470Y12700
X77470Y10160
X77470Y7620
X63500Y15240
X77470Y2540
X74930Y20320
X74930Y17780
X74930Y15240
X74930Y12700
X74930Y10160
X74930Y7620
X74930Y5080
X6350Y19050
X15240Y21590
X15240Y24130
X15240Y26670
X15240Y29210
X15240Y31750
X15240Y34290
X15240Y36830
X6350Y31750
X6350Y29210
X6350Y26670
X6350Y24130
X6350Y21590
X43180Y88900
X35560Y53340
X35560Y55880
X35560Y58420
X35560Y60960
X35560Y63500
X17780Y59690
X15240Y59690
X12700Y59690
X10160Y59690
X2540Y49149
X2540Y46609
X48260Y83820
X55880Y81280
X55880Y78740
X55880Y76200
X55880Y73660
X55880Y71120
X55880Y83820
X48260Y86360
X48260Y81280
X48260Y78740
X55880Y86360
X48260Y71120
X48260Y73660
X48260Y76200
T5
X29210Y58460
X71080Y78740
X66080Y78740
X29210Y63460
T6
X4732Y69255
X2540Y56174
X2540Y58674
X2540Y61174
X4732Y74255
T7
X57150Y63500
X22860Y67310
X27940Y74930
X17780Y74930
X11430Y74930
X13970Y74930
X16510Y5080
X49530Y30480
X49530Y63500
X49530Y60960
X49530Y58420
X49530Y55880
X49530Y53340
X49530Y50800
X49530Y48260
X49530Y45720
X49530Y43180
X49530Y40640
X49530Y38100
X49530Y35560
X49530Y33020
X57150Y60960
X57150Y30480
X57150Y33020
X57150Y35560
X57150Y38100
X57150Y40640
X57150Y43180
X57150Y45720
X57150Y48260
X57150Y50800
X57150Y53340
X57150Y55880
X57150Y58420
X86360Y53340
X78740Y35560
X78740Y33020
X78740Y30480
X86360Y30480
X86360Y33020
X86360Y35560
X86360Y38100
X86360Y40640
X86360Y43180
X86360Y45720
X86360Y48260
X86360Y50800
X44450Y33020
X86360Y55880
X86360Y58420
X86360Y60960
X86360Y63500
X74930Y43180
X74930Y40640
X68580Y35560
X68580Y25400
X29210Y5080
X39370Y5080
X26670Y5080
X72390Y35560
X78740Y40640
X22860Y57150
X44450Y35560
X62230Y63500
X62230Y60960
X62230Y45720
X62230Y40640
X60960Y83820
X71120Y83820
X86360Y25400
X86360Y27940
X86360Y24130
X76200Y24130
X78740Y63500
X78740Y38100
X78740Y43180
X78740Y45720
X78740Y48260
X78740Y50800
X78740Y55880
X78740Y58420
X78740Y60960
X72390Y25400
X78740Y53340
T8
X39370Y49530
X21590Y50800
X36830Y50800
X76200Y35560
X19050Y43180
X43970Y44450
X11430Y46990
X40640Y48260
X2540Y40640
X3810Y36830
X41910Y46990
X12700Y52070
X21590Y24130
X21590Y38100
X43180Y45720
X10160Y40640
X15240Y16510
X10160Y21590
X33020Y16510
X39370Y16510
X35560Y29210
X33020Y19050
X22860Y35560
X40640Y31750
X31750Y41910
X26670Y38100
X6350Y69850
M30